<svg width="161" height="53" viewBox="0 0 161 53" fill="none" xmlns="http://www.w3.org/2000/svg">
<path d="M65.77 28.735L63.415 22.075C63.275 21.725 63.125 21.315 62.965 20.845C62.815 20.375 62.67 19.865 62.53 19.315C62.39 19.875 62.24 20.395 62.08 20.875C61.93 21.345 61.785 21.755 61.645 22.105L59.305 28.735H65.77ZM73.33 37H69.835C69.445 37 69.125 36.91 68.875 36.73C68.635 36.54 68.455 36.3 68.335 36.01L66.865 31.855H58.195L56.725 36.01C56.625 36.26 56.45 36.49 56.2 36.7C55.95 36.9 55.635 37 55.255 37H51.73L60.235 15.235H64.84L73.33 37ZM79.8745 37H75.3445V15.235H79.8745V37ZM106.042 18.865H99.6824V37H95.1674V18.865H88.8074V15.235H106.042V18.865ZM119.082 21.535V37H116.532C116.002 37 115.662 36.76 115.512 36.28L115.242 35.2C114.932 35.5 114.612 35.775 114.282 36.025C113.952 36.275 113.597 36.49 113.217 36.67C112.847 36.85 112.442 36.99 112.002 37.09C111.572 37.19 111.102 37.24 110.592 37.24C109.752 37.24 109.002 37.095 108.342 36.805C107.692 36.515 107.147 36.11 106.707 35.59C106.267 35.07 105.932 34.45 105.702 33.73C105.472 33.01 105.357 32.22 105.357 31.36V21.535H109.497V31.36C109.497 32.22 109.692 32.89 110.082 33.37C110.482 33.84 111.072 34.075 111.852 34.075C112.432 34.075 112.977 33.95 113.487 33.7C113.997 33.44 114.482 33.09 114.942 32.65V21.535H119.082ZM127.839 37.24C127.139 37.24 126.519 37.14 125.979 36.94C125.439 36.73 124.984 36.435 124.614 36.055C124.244 35.675 123.964 35.215 123.774 34.675C123.584 34.135 123.489 33.525 123.489 32.845V24.505H122.034C121.814 24.505 121.624 24.435 121.464 24.295C121.314 24.155 121.239 23.945 121.239 23.665V22.045L123.714 21.595L124.554 17.59C124.664 17.14 124.969 16.915 125.469 16.915H127.629V21.625H131.619V24.505H127.629V32.575C127.629 33.005 127.729 33.345 127.929 33.595C128.139 33.845 128.434 33.97 128.814 33.97C129.014 33.97 129.184 33.95 129.324 33.91C129.464 33.86 129.584 33.81 129.684 33.76C129.784 33.7 129.874 33.65 129.954 33.61C130.044 33.56 130.134 33.535 130.224 33.535C130.344 33.535 130.444 33.565 130.524 33.625C130.604 33.675 130.684 33.765 130.764 33.895L132.009 35.875C131.439 36.325 130.794 36.665 130.074 36.895C129.354 37.125 128.609 37.24 127.839 37.24ZM140.665 21.295C141.825 21.295 142.88 21.48 143.83 21.85C144.78 22.22 145.595 22.75 146.275 23.44C146.955 24.12 147.48 24.95 147.85 25.93C148.22 26.91 148.405 28.015 148.405 29.245C148.405 30.475 148.22 31.585 147.85 32.575C147.48 33.555 146.955 34.39 146.275 35.08C145.595 35.77 144.78 36.3 143.83 36.67C142.88 37.04 141.825 37.225 140.665 37.225C139.495 37.225 138.43 37.04 137.47 36.67C136.52 36.3 135.705 35.77 135.025 35.08C134.345 34.39 133.815 33.555 133.435 32.575C133.065 31.585 132.88 30.475 132.88 29.245C132.88 28.015 133.065 26.91 133.435 25.93C133.815 24.95 134.345 24.12 135.025 23.44C135.705 22.75 136.52 22.22 137.47 21.85C138.43 21.48 139.495 21.295 140.665 21.295ZM140.665 34.12C141.845 34.12 142.72 33.715 143.29 32.905C143.86 32.085 144.145 30.87 144.145 29.26C144.145 27.66 143.86 26.455 143.29 25.645C142.72 24.825 141.845 24.415 140.665 24.415C139.455 24.415 138.565 24.825 137.995 25.645C137.425 26.455 137.14 27.66 137.14 29.26C137.14 30.87 137.425 32.085 137.995 32.905C138.565 33.715 139.455 34.12 140.665 34.12ZM154.89 24.085C155.38 23.205 155.945 22.51 156.585 22C157.225 21.49 157.975 21.235 158.835 21.235C159.535 21.235 160.105 21.4 160.545 21.73L160.275 24.79C160.225 24.99 160.145 25.13 160.035 25.21C159.935 25.28 159.795 25.315 159.615 25.315C159.455 25.315 159.225 25.295 158.925 25.255C158.625 25.205 158.345 25.18 158.085 25.18C157.705 25.18 157.365 25.235 157.065 25.345C156.775 25.455 156.515 25.61 156.285 25.81C156.055 26.01 155.845 26.255 155.655 26.545C155.475 26.835 155.305 27.165 155.145 27.535V37H151.005V21.535H153.45C153.87 21.535 154.16 21.61 154.32 21.76C154.48 21.91 154.595 22.17 154.665 22.54L154.89 24.085Z" fill="#242331"/>
<path d="M38.401 35.1548L31.7418 29.6999C29.6372 27.9758 26.5087 29.7186 26.8669 32.4155L28.4713 44.4976C28.5927 45.412 29.128 46.2196 29.9229 46.6877L34.9776 49.6644C36.9775 50.8421 39.4999 49.4003 39.4999 47.0794V37.4756C39.4999 36.5764 39.0966 35.7246 38.401 35.1548Z" fill="#644AFF"/>
<path d="M1.09899 35.1548L7.75817 29.6999C9.86281 27.9758 12.9913 29.7186 12.6331 32.4155L11.0287 44.4976C10.9073 45.412 10.372 46.2196 9.57715 46.6877L4.52239 49.6644C2.5225 50.8421 6.77109e-05 49.4003 6.77109e-05 47.0794V37.4756C6.77109e-05 36.5764 0.403399 35.7246 1.09899 35.1548Z" fill="#644AFF"/>
<path d="M25.6758 41.4791H14.2415C11.0503 41.4791 8.39633 38.9707 8.38895 35.7794C8.33542 12.6287 15.935 2.31897 20.038 0C29.2676 5.82901 31.4818 23.8906 31.4593 35.8923C31.4534 39.0439 28.8274 41.4791 25.6758 41.4791Z" fill="#5236FF"/>
<rect x="16.7793" y="19.1443" width="6.38947" height="7" rx="3.19474" transform="rotate(-90 16.7793 19.1443)" fill="white"/>
</svg>
