<svg width="163" height="163" viewBox="0 0 163 163" fill="none" xmlns="http://www.w3.org/2000/svg">
<g opacity="0.8">
<path d="M114.284 76.0335C133.176 80.0595 151.739 67.9344 155.745 48.9513C159.752 29.9682 147.685 11.3157 128.793 7.2897C109.902 3.26371 91.3389 15.3888 87.3323 34.3719C83.3257 53.355 95.3924 72.0075 114.284 76.0335Z" fill="#42C87F"/>
<path d="M114.284 76.0335C133.176 80.0595 151.739 67.9344 155.745 48.9513C159.752 29.9682 147.685 11.3157 128.793 7.2897C109.902 3.26371 91.3389 15.3888 87.3323 34.3719C83.3257 53.355 95.3924 72.0075 114.284 76.0335Z" fill="url(#paint0_linear_7844_7914)"/>
</g>
<ellipse cx="19.4043" cy="19.4901" rx="19.4043" ry="19.4901" transform="matrix(0.978038 0.208429 -0.206512 0.978444 106.189 19.7266)" fill="white"/>
<path fill-rule="evenodd" clip-rule="evenodd" d="M134.206 51.1669C129.015 50.8594 122.809 48.6231 121.218 42.4832C119.358 35.3024 123.936 26.0506 129.119 25.0382C131.703 26.305 135.316 28.396 138.087 32.9564C143.922 35.7655 148.277 45.4351 146.494 52.6307C146.478 52.7354 146.458 52.8403 146.436 52.9452C145.727 56.3065 142.44 58.4534 139.095 57.7406C136.017 57.0847 133.962 54.2362 134.206 51.1669Z" fill="#EEEED4"/>
<path fill-rule="evenodd" clip-rule="evenodd" d="M134.206 51.1669C129.015 50.8594 122.809 48.6231 121.218 42.4832C119.358 35.3024 123.936 26.0506 129.119 25.0382C131.703 26.305 135.316 28.396 138.087 32.9564C143.922 35.7655 148.277 45.4351 146.494 52.6307C146.478 52.7354 146.458 52.8403 146.436 52.9452C145.727 56.3065 142.44 58.4534 139.095 57.7406C136.017 57.0847 133.962 54.2362 134.206 51.1669Z" fill="url(#paint1_linear_7844_7914)"/>
<path d="M126.942 45.3491C128.28 45.6342 129.595 44.7755 129.879 43.4309C130.162 42.0864 129.308 40.7653 127.97 40.4802C126.632 40.195 125.317 41.0538 125.033 42.3983C124.749 43.7428 125.604 45.0639 126.942 45.3491Z" fill="url(#paint2_linear_7844_7914)"/>
<path d="M114.829 42.7675C116.167 43.0527 117.481 42.1939 117.765 40.8494C118.049 39.5049 117.194 38.1838 115.856 37.8986C114.518 37.6135 113.204 38.4723 112.92 39.8168C112.636 41.1613 113.491 42.4824 114.829 42.7675Z" fill="url(#paint3_linear_7844_7914)"/>
<path d="M119.112 50.4643C120.45 50.7495 121.765 49.8907 122.048 48.5462C122.332 47.2017 121.478 45.8806 120.14 45.5954C118.801 45.3103 117.487 46.169 117.203 47.5136C116.919 48.8581 117.774 50.1792 119.112 50.4643Z" fill="url(#paint4_linear_7844_7914)"/>
<path fill-rule="evenodd" clip-rule="evenodd" d="M109.133 27.7448C107.272 30.3303 105.114 33.3271 105.616 40.4292L105.616 40.4292C106.162 41.6084 106.345 42.9687 106.056 44.3387C105.347 47.7 102.06 49.8469 98.7149 49.134C95.3698 48.4212 93.2331 45.1184 93.9426 41.7571C93.965 41.6508 93.99 41.5457 94.0176 41.4418C95.3032 34.1056 103.256 27.0151 109.739 26.8921C109.544 27.1746 109.34 27.4572 109.133 27.7448Z" fill="#EEEED4"/>
<path fill-rule="evenodd" clip-rule="evenodd" d="M109.133 27.7448C107.272 30.3303 105.114 33.3271 105.616 40.4292L105.616 40.4292C106.162 41.6084 106.345 42.9687 106.056 44.3387C105.347 47.7 102.06 49.8469 98.7149 49.134C95.3698 48.4212 93.2331 45.1184 93.9426 41.7571C93.965 41.6508 93.99 41.5457 94.0176 41.4418C95.3032 34.1056 103.256 27.0151 109.739 26.8921C109.544 27.1746 109.34 27.4572 109.133 27.7448Z" fill="url(#paint5_linear_7844_7914)"/>
<g filter="url(#filter0_d_7844_7914)">
<rect width="53.5699" height="95.2458" rx="6.09473" transform="matrix(0.980947 -0.194274 0.192825 0.981233 3 20.9751)" fill="white"/>
<rect width="48.7211" height="90.013" rx="6.09473" transform="matrix(0.980913 -0.194449 0.192651 0.981268 5.86035 22.9023)" fill="url(#paint6_radial_7844_7914)"/>
<rect width="19.6624" height="19.7504" rx="4.1625" transform="matrix(0.980913 -0.194449 0.192651 0.981268 9.29785 25.9629)" fill="#67AF88"/>
<ellipse cx="3.68671" cy="3.7032" rx="3.68671" ry="3.7032" transform="matrix(0.980913 -0.194449 0.192651 0.981268 12.1484 27.7207)" fill="#66D091"/>
<ellipse cx="3.68671" cy="3.7032" rx="3.68671" ry="3.7032" transform="matrix(0.980913 -0.194449 0.192651 0.981268 13.7598 35.9209)" fill="#66D091"/>
<ellipse cx="3.68671" cy="3.7032" rx="3.68671" ry="3.7032" transform="matrix(0.980913 -0.194449 0.192651 0.981268 20.707 30.0898)" fill="#66D091"/>
<ellipse cx="3.07226" cy="3.086" rx="3.07226" ry="3.086" transform="matrix(0.980913 -0.194449 0.192651 0.981268 12.8711 28.207)" fill="#42A86C"/>
<ellipse cx="3.07226" cy="3.086" rx="3.07226" ry="3.086" transform="matrix(0.980913 -0.194449 0.192651 0.981268 14.4805 36.4062)" fill="#42A86C"/>
<ellipse cx="3.07226" cy="3.086" rx="3.07226" ry="3.086" transform="matrix(0.980913 -0.194449 0.192651 0.981268 21.4277 30.5767)" fill="#42A86C"/>
<ellipse cx="1.5125" cy="1.51926" rx="1.5125" ry="1.51926" transform="matrix(0.980913 -0.194449 0.192651 0.981268 22.127 25.5498)" fill="#66D091"/>
<path opacity="0.8" d="M42.9898 85.5684C53.6418 83.4568 60.5734 73.0681 58.472 62.3646C56.3706 51.6611 46.0319 44.6959 35.3799 46.8075C24.7279 48.9191 17.7963 59.3078 19.8977 70.0113C21.9991 80.7148 32.3378 87.68 42.9898 85.5684Z" fill="url(#paint7_linear_7844_7914)"/>
<ellipse cx="10.9089" cy="10.9578" rx="10.9089" ry="10.9578" transform="matrix(0.980913 -0.194449 0.192651 0.981268 26.3135 57.1157)" fill="white"/>
<path fill-rule="evenodd" clip-rule="evenodd" d="M47.713 67.1514C44.9617 68.1447 41.2608 68.3663 39.0888 65.5448C36.5487 62.2451 36.8817 56.4459 39.3388 54.7721C40.953 54.8536 43.2809 55.1326 45.716 56.8753C49.3497 57.0323 53.7267 61.0642 54.3875 65.1797C54.402 65.2379 54.4152 65.2968 54.4268 65.3563C54.7989 67.2515 53.5716 69.091 51.6854 69.4649C49.95 69.8089 48.2615 68.7923 47.713 67.1514Z" fill="#EEEED4"/>
<path fill-rule="evenodd" clip-rule="evenodd" d="M47.713 67.1514C44.9617 68.1447 41.2608 68.3663 39.0888 65.5448C36.5487 62.2451 36.8817 56.4459 39.3388 54.7721C40.953 54.8536 43.2809 55.1326 45.716 56.8753C49.3497 57.0323 53.7267 61.0642 54.3875 65.1797C54.402 65.2379 54.4152 65.2968 54.4268 65.3563C54.7989 67.2515 53.5716 69.091 51.6854 69.4649C49.95 69.8089 48.2615 68.7923 47.713 67.1514Z" fill="url(#paint8_linear_7844_7914)"/>
<path d="M42.6775 65.7558C43.4319 65.6062 43.9229 64.8704 43.7741 64.1123C43.6252 63.3542 42.8929 62.8609 42.1385 63.0105C41.384 63.16 40.8931 63.8958 41.042 64.6539C41.1908 65.412 41.923 65.9053 42.6775 65.7558Z" fill="#42C87F"/>
<path d="M35.8474 67.1103C36.6018 66.9607 37.0928 66.2249 36.944 65.4668C36.7951 64.7087 36.0629 64.2154 35.3084 64.365C34.554 64.5145 34.063 65.2503 34.2119 66.0084C34.3607 66.7665 35.0929 67.2598 35.8474 67.1103Z" fill="#42C87F"/>
<path d="M39.7527 70.1386C40.5071 69.989 40.9981 69.2532 40.8492 68.4951C40.7004 67.737 39.9682 67.2437 39.2137 67.3933C38.4593 67.5428 37.9683 68.2786 38.1171 69.0367C38.266 69.7948 38.9982 70.2881 39.7527 70.1386Z" fill="#42C87F"/>
<path fill-rule="evenodd" clip-rule="evenodd" d="M24.8 71.0501C24.8084 71.1079 24.8183 71.1658 24.8297 71.2238C25.2018 73.119 27.0324 74.3523 28.9185 73.9784C30.8046 73.6045 32.032 71.765 31.6599 69.8698C31.5082 69.0969 31.1139 68.4341 30.5722 67.9455C28.7517 64.3856 29.2084 62.3574 29.6024 60.6077C29.6462 60.413 29.6893 60.2218 29.7284 60.0323C26.4022 61.5355 23.848 66.9712 24.8 71.0501Z" fill="#EEEED4"/>
<path fill-rule="evenodd" clip-rule="evenodd" d="M24.8 71.0501C24.8084 71.1079 24.8183 71.1658 24.8297 71.2238C25.2018 73.119 27.0324 74.3523 28.9185 73.9784C30.8046 73.6045 32.032 71.765 31.6599 69.8698C31.5082 69.0969 31.1139 68.4341 30.5722 67.9455C28.7517 64.3856 29.2084 62.3574 29.6024 60.6077C29.6462 60.413 29.6893 60.2218 29.7284 60.0323C26.4022 61.5355 23.848 66.9712 24.8 71.0501Z" fill="url(#paint9_linear_7844_7914)"/>
</g>
<g filter="url(#filter1_d_7844_7914)">
<path d="M71.9329 52.2504C73.4122 49.2288 77.0562 47.9878 80.0722 49.4786L133.985 76.1273C139.169 78.6899 141.31 84.9779 138.768 90.1719L109.187 150.595C106.645 155.789 100.381 157.923 95.1962 155.36L41.2838 128.711C38.2679 127.221 37.0221 123.563 38.5014 120.541L71.9329 52.2504Z" fill="url(#paint10_linear_7844_7914)"/>
</g>
<path d="M76.9143 60.8158C78.9852 56.5856 84.0869 54.8482 88.3093 56.9352L131.341 78.2059C135.564 80.2929 137.308 85.4142 135.237 89.6444L106.847 147.636C104.776 151.866 99.6745 153.603 95.4521 151.516L52.4201 130.246C48.1978 128.159 46.4537 123.037 48.5247 118.807L76.9143 60.8158Z" fill="url(#paint11_linear_7844_7914)"/>
<path d="M128.502 76.8022L131.342 78.2059C135.564 80.293 137.308 85.4142 135.237 89.6445L133.668 92.8498L122.162 89.7523L128.502 76.8022Z" fill="#3BB773"/>
<rect width="65.0584" height="81.6239" rx="6.09156" transform="matrix(0.896463 0.443119 -0.439689 0.89815 75.8594 50.7808)" fill="url(#paint12_linear_7844_7914)"/>
<path d="M73.181 56.2519C74.6602 53.2303 78.3043 51.9893 81.3202 53.48L128.721 76.9101C131.737 78.4009 132.983 82.0589 131.503 85.0805L128.379 91.462L70.0569 62.6334L73.181 56.2519Z" fill="#66D091"/>
<path d="M72.3674 101.292C71.7551 101.656 71.1757 101.775 70.6292 101.65C70.1061 101.537 69.6689 101.277 69.3176 100.871C68.9664 100.466 68.7421 99.9782 68.6449 99.4083C68.5825 98.8265 68.7117 98.2671 69.0325 97.7298C69.2387 97.3679 69.5319 97.0054 69.9121 96.6425C70.2923 96.2796 70.6961 95.9573 71.1233 95.6757C71.5853 95.3822 72.0418 95.1294 72.4929 94.9175C72.9786 94.6937 73.4358 94.5283 73.8644 94.4212C74.6407 94.2541 75.4583 94.1799 76.3173 94.1986C77.1996 94.2288 78.0652 94.3523 78.9141 94.5689C79.7862 94.7971 80.6011 95.1129 81.3585 95.5163C82.1393 95.9312 82.8161 96.4107 83.3889 96.9548C84.9672 98.4597 85.9604 100.096 86.3685 101.863C86.7765 103.63 86.4892 105.518 85.5064 107.525C85.0379 108.482 84.5218 109.3 83.9583 109.978C83.4295 110.645 82.7724 111.219 81.9868 111.7C81.2246 112.193 80.3052 112.623 79.2287 112.99C78.1754 113.368 76.9131 113.729 75.4418 114.075C74.9438 114.206 74.4341 114.331 73.9127 114.45C73.3914 114.569 72.87 114.688 72.3486 114.807C72.1864 114.843 71.8965 114.874 71.4789 114.899C71.0613 114.925 70.6786 114.968 70.3309 115.028C69.9832 115.088 69.746 115.188 69.6194 115.328C69.4928 115.469 69.6335 115.654 70.0415 115.885C70.5312 116.185 70.9333 116.398 71.2476 116.524C71.5619 116.651 71.9754 116.841 72.488 117.094C73.0937 117.394 73.6936 117.676 74.2875 117.94C74.8814 118.205 75.4582 118.504 76.0178 118.839C76.2394 118.977 76.49 119.116 76.7696 119.254C77.0606 119.369 77.3402 119.507 77.6084 119.669C77.888 119.807 78.1388 119.974 78.3608 120.171C78.5942 120.344 78.7642 120.559 78.8706 120.814C78.977 121.07 79.0082 121.361 78.9643 121.687C78.9203 122.013 78.8184 122.34 78.6584 122.666C78.5331 122.981 78.3613 123.273 78.1428 123.542C77.9358 123.788 77.7107 123.952 77.4676 124.035C76.9933 124.235 76.5348 124.226 76.0921 124.007C75.6608 123.765 75.2472 123.546 74.8511 123.35L62.3042 117.148C62.0712 117.033 61.8092 116.918 61.5182 116.803C61.2504 116.7 61.0289 116.562 60.8535 116.388C60.4912 116.064 60.3901 115.738 60.5501 115.412C60.7334 115.096 60.9107 114.764 61.0821 114.413C61.3678 113.83 61.7705 113.362 62.29 113.01C62.821 112.635 63.3991 112.341 64.0242 112.128C64.684 111.903 65.35 111.725 66.0221 111.593C66.6943 111.462 67.3257 111.324 67.9165 111.181C68.7852 110.944 69.7004 110.73 70.6622 110.538C71.6241 110.347 72.5509 110.138 73.4429 109.912C74.5898 109.638 75.5799 109.359 76.4134 109.076C77.2702 108.803 77.9933 108.508 78.5828 108.191C79.1722 107.873 79.6628 107.522 80.0545 107.135C80.4575 106.726 80.7905 106.253 81.0533 105.716C81.6362 104.525 81.7207 103.436 81.307 102.449C80.9046 101.438 80.1443 100.657 79.0259 100.104C78.2104 99.7006 77.3558 99.4957 76.4621 99.4888C75.5917 99.4934 74.7578 99.7191 73.9604 100.166C73.6949 100.353 73.4237 100.553 73.1468 100.764C72.9046 100.963 72.6448 101.139 72.3674 101.292ZM98.5872 104.032C98.7732 104.066 98.9418 104.106 99.093 104.152C99.2557 104.174 99.4126 104.208 99.5638 104.254C99.7498 104.288 99.9593 104.363 100.192 104.478C100.46 104.581 100.687 104.708 100.874 104.858C101.096 104.997 101.271 105.171 101.4 105.379C101.564 105.576 101.641 105.803 101.632 106.059C101.611 106.339 101.532 106.648 101.395 106.986C101.293 107.312 101.162 107.639 101.002 107.966C100.842 108.293 100.671 108.614 100.487 108.929C100.339 109.233 100.202 109.513 100.076 109.769L91.3165 127.662C91.1908 127.919 91.0594 128.187 90.9223 128.468C90.8199 128.736 90.6885 129.004 90.528 129.273C90.3676 129.542 90.1663 129.775 89.9241 129.975C89.6933 130.15 89.4214 130.262 89.1084 130.311C88.6565 130.406 88.151 130.316 87.5918 130.039C87.0445 129.798 86.607 129.509 86.2795 129.173C85.9287 128.826 85.8038 128.431 85.9049 127.988C86.0292 127.557 86.1886 127.142 86.3828 126.746C87.7282 123.584 89.1209 120.532 90.5608 117.591C92.0354 114.638 93.5384 111.597 95.0697 108.469C94.9659 108.563 94.7514 108.587 94.4261 108.542C94.1241 108.509 93.7812 108.441 93.3974 108.338C93.037 108.247 92.6938 108.15 92.3681 108.047C92.0423 107.944 91.8329 107.869 91.7397 107.823C91.0996 107.594 90.569 107.259 90.1478 106.819C89.7614 106.367 89.7103 105.762 89.9947 105.004C90.2672 104.211 90.716 103.708 91.3411 103.495C91.9895 103.293 92.7029 103.255 93.4815 103.379C94.3528 103.49 95.2008 103.591 96.0254 103.679C96.8849 103.756 97.7388 103.874 98.5872 104.032Z" fill="#68D399"/>
<ellipse cx="1.94931" cy="1.95506" rx="1.94931" ry="1.95506" transform="matrix(0.896463 0.443119 -0.439689 0.89815 91.8369 63.5859)" fill="#42A86C"/>
<ellipse cx="1.94931" cy="1.95506" rx="1.94931" ry="1.95506" transform="matrix(0.896463 0.443119 -0.439689 0.89815 110.622 72.8711)" fill="#42A86C"/>
<path opacity="0.8" d="M91.1543 92.9618C94.5926 94.6613 98.7509 93.2383 100.442 89.7835C102.133 86.3287 100.717 82.1502 97.2791 80.4507C93.8409 78.7512 89.6826 80.1742 87.9913 83.6291C86.3 87.0839 87.7161 91.2623 91.1543 92.9618Z" fill="url(#paint13_linear_7844_7914)"/>
<ellipse cx="3.85285" cy="3.86421" rx="3.85285" ry="3.86421" transform="matrix(0.896463 0.443119 -0.439689 0.89815 92.54 81.3931)" fill="white"/>
<path fill-rule="evenodd" clip-rule="evenodd" d="M96.4024 88.811C95.4193 88.4974 94.3349 87.7634 94.3268 86.5052C94.3174 85.033 95.6466 83.4778 96.6926 83.5369C97.1282 83.9072 97.7221 84.4866 98.0338 85.5002C99.0202 86.328 99.3879 88.4047 98.6923 89.7004C98.6847 89.7179 98.6767 89.7352 98.6682 89.7525C98.3688 90.3643 97.6325 90.6162 97.0237 90.3153C96.4633 90.0383 96.2063 89.3895 96.4024 88.811Z" fill="#EEEED4"/>
<path fill-rule="evenodd" clip-rule="evenodd" d="M96.4024 88.811C95.4193 88.4974 94.3349 87.7634 94.3268 86.5052C94.3174 85.033 95.6466 83.4778 96.6926 83.5369C97.1282 83.9072 97.7221 84.4866 98.0338 85.5002C99.0202 86.328 99.3879 88.4047 98.6923 89.7004C98.6847 89.7179 98.6767 89.7352 98.6682 89.7525C98.3688 90.3643 97.6325 90.6162 97.0237 90.3153C96.4633 90.0383 96.2063 89.3895 96.4024 88.811Z" fill="url(#paint14_linear_7844_7914)"/>
<path d="M95.2906 87.3368C95.5343 87.4573 95.829 87.3565 95.9488 87.1118C96.0686 86.8671 95.9682 86.571 95.7245 86.4505C95.4808 86.3301 95.1861 86.4308 95.0663 86.6756C94.9465 86.9203 95.0469 87.2164 95.2906 87.3368Z" fill="#42C87F"/>
<path d="M93.0845 86.2475C93.3282 86.3679 93.6229 86.2672 93.7427 86.0224C93.8625 85.7777 93.7621 85.4816 93.5184 85.3612C93.2747 85.2407 92.98 85.3415 92.8602 85.5862C92.7404 85.8309 92.8408 86.127 93.0845 86.2475Z" fill="#42C87F"/>
<path d="M93.5347 87.9379C93.7784 88.0584 94.0731 87.9576 94.1929 87.7129C94.3127 87.4681 94.2123 87.1721 93.9686 87.0516C93.7249 86.9311 93.4302 87.0319 93.3104 87.2766C93.1906 87.5214 93.291 87.8174 93.5347 87.9379Z" fill="#42C87F"/>
<path fill-rule="evenodd" clip-rule="evenodd" d="M89.1435 84.9812C89.1347 84.9974 89.1262 85.0138 89.1181 85.0304C88.8186 85.6422 89.0693 86.382 89.6781 86.683C90.2869 86.9839 91.0232 86.7319 91.3227 86.1202C91.4451 85.8701 91.4756 85.5987 91.4273 85.3445C91.6753 83.9557 92.2353 83.4853 92.7185 83.0794C92.7722 83.0342 92.8251 82.9898 92.8764 82.945C91.6212 82.6507 89.7429 83.6292 89.1435 84.9812Z" fill="#EEEED4"/>
<path fill-rule="evenodd" clip-rule="evenodd" d="M89.1435 84.9812C89.1347 84.9974 89.1262 85.0138 89.1181 85.0304C88.8186 85.6422 89.0693 86.382 89.6781 86.683C90.2869 86.9839 91.0232 86.7319 91.3227 86.1202C91.4451 85.8701 91.4756 85.5987 91.4273 85.3445C91.6753 83.9557 92.2353 83.4853 92.7185 83.0794C92.7722 83.0342 92.8251 82.9898 92.8764 82.945C91.6212 82.6507 89.7429 83.6292 89.1435 84.9812Z" fill="url(#paint15_linear_7844_7914)"/>
<defs>
<filter id="filter0_d_7844_7914" x="0.576866" y="8.50033" width="75.7613" height="108.697" filterUnits="userSpaceOnUse" color-interpolation-filters="sRGB">
<feFlood flood-opacity="0" result="BackgroundImageFix"/>
<feColorMatrix in="SourceAlpha" type="matrix" values="0 0 0 0 0 0 0 0 0 0 0 0 0 0 0 0 0 0 127 0" result="hardAlpha"/>
<feOffset dy="0.34827"/>
<feGaussianBlur stdDeviation="1.74135"/>
<feComposite in2="hardAlpha" operator="out"/>
<feColorMatrix type="matrix" values="0 0 0 0 0 0 0 0 0 0 0 0 0 0 0 0 0 0 0.2 0"/>
<feBlend mode="normal" in2="BackgroundImageFix" result="effect1_dropShadow_7844_7914"/>
<feBlend mode="normal" in="SourceGraphic" in2="effect1_dropShadow_7844_7914" result="shape"/>
</filter>
<filter id="filter1_d_7844_7914" x="31.858" y="43.3503" width="114.001" height="119.639" filterUnits="userSpaceOnUse" color-interpolation-filters="sRGB">
<feFlood flood-opacity="0" result="BackgroundImageFix"/>
<feColorMatrix in="SourceAlpha" type="matrix" values="0 0 0 0 0 0 0 0 0 0 0 0 0 0 0 0 0 0 127 0" result="hardAlpha"/>
<feOffset dy="0.523557"/>
<feGaussianBlur stdDeviation="3.01045"/>
<feComposite in2="hardAlpha" operator="out"/>
<feColorMatrix type="matrix" values="0 0 0 0 0 0 0 0 0 0 0 0 0 0 0 0 0 0 0.2 0"/>
<feBlend mode="normal" in2="BackgroundImageFix" result="effect1_dropShadow_7844_7914"/>
<feBlend mode="normal" in="SourceGraphic" in2="effect1_dropShadow_7844_7914" result="shape"/>
</filter>
<linearGradient id="paint0_linear_7844_7914" x1="137.395" y1="-33.4656" x2="170.519" y2="33.8366" gradientUnits="userSpaceOnUse">
<stop stop-color="#F4EFD4"/>
<stop offset="1" stop-color="#C7EAD1"/>
</linearGradient>
<linearGradient id="paint1_linear_7844_7914" x1="139.753" y1="57.8659" x2="125.715" y2="34.1799" gradientUnits="userSpaceOnUse">
<stop stop-color="#68D399"/>
<stop offset="1" stop-color="#4DBC80"/>
</linearGradient>
<linearGradient id="paint2_linear_7844_7914" x1="126.246" y1="40.1826" x2="128.963" y2="45.5558" gradientUnits="userSpaceOnUse">
<stop stop-color="#6FDBA1"/>
<stop offset="1" stop-color="#64D196"/>
</linearGradient>
<linearGradient id="paint3_linear_7844_7914" x1="114.133" y1="37.6011" x2="116.85" y2="42.9742" gradientUnits="userSpaceOnUse">
<stop stop-color="#6FDBA1"/>
<stop offset="1" stop-color="#64D196"/>
</linearGradient>
<linearGradient id="paint4_linear_7844_7914" x1="118.416" y1="45.2979" x2="121.133" y2="50.671" gradientUnits="userSpaceOnUse">
<stop stop-color="#6FDBA1"/>
<stop offset="1" stop-color="#64D196"/>
</linearGradient>
<linearGradient id="paint5_linear_7844_7914" x1="95.0229" y1="48.3352" x2="109.503" y2="43.4555" gradientUnits="userSpaceOnUse">
<stop stop-color="#68D399"/>
<stop offset="1" stop-color="#4DBC80"/>
</linearGradient>
<radialGradient id="paint6_radial_7844_7914" cx="0" cy="0" r="1" gradientUnits="userSpaceOnUse" gradientTransform="translate(7.39517 3.58304) rotate(66.5463) scale(94.2137 51.0673)">
<stop stop-color="#F2EFD4"/>
<stop offset="1" stop-color="#9CDEB8"/>
</radialGradient>
<linearGradient id="paint7_linear_7844_7914" x1="19.7936" y1="69.2301" x2="58.3818" y2="61.6542" gradientUnits="userSpaceOnUse">
<stop stop-color="#90E0A1"/>
<stop offset="1" stop-color="#42C87F"/>
</linearGradient>
<linearGradient id="paint8_linear_7844_7914" x1="38.2528" y1="62.3674" x2="53.977" y2="61.8796" gradientUnits="userSpaceOnUse">
<stop stop-color="#F4EFD4"/>
<stop offset="1" stop-color="#C7EAD1"/>
</linearGradient>
<linearGradient id="paint9_linear_7844_7914" x1="28.3504" y1="64.1666" x2="23.3433" y2="72.7724" gradientUnits="userSpaceOnUse">
<stop stop-color="#F4EFD4"/>
<stop offset="1" stop-color="#C7EAD1"/>
</linearGradient>
<linearGradient id="paint10_linear_7844_7914" x1="64.4497" y1="67.5364" x2="118.936" y2="123.336" gradientUnits="userSpaceOnUse">
<stop stop-color="white"/>
<stop offset="1" stop-color="white"/>
</linearGradient>
<linearGradient id="paint11_linear_7844_7914" x1="109.825" y1="67.5706" x2="73.6564" y2="140.743" gradientUnits="userSpaceOnUse">
<stop stop-color="#ADE0C5"/>
<stop offset="1" stop-color="#ADE0C5"/>
<stop offset="1" stop-color="#ADE0C5"/>
</linearGradient>
<linearGradient id="paint12_linear_7844_7914" x1="3.92182e-07" y1="21.3835" x2="63.3887" y2="42.0458" gradientUnits="userSpaceOnUse">
<stop stop-color="#F4EFD4"/>
<stop offset="1" stop-color="#D5E8CA"/>
</linearGradient>
<linearGradient id="paint13_linear_7844_7914" x1="88.1286" y1="83.3875" x2="100.603" y2="89.4943" gradientUnits="userSpaceOnUse">
<stop stop-color="#90E0A1"/>
<stop offset="1" stop-color="#42C87F"/>
</linearGradient>
<linearGradient id="paint14_linear_7844_7914" x1="94.7692" y1="85.4343" x2="99.2995" y2="88.6578" gradientUnits="userSpaceOnUse">
<stop stop-color="#F4EFD4"/>
<stop offset="1" stop-color="#C7EAD1"/>
</linearGradient>
<linearGradient id="paint15_linear_7844_7914" x1="91.6093" y1="83.8084" x2="88.3719" y2="85.1485" gradientUnits="userSpaceOnUse">
<stop stop-color="#F4EFD4"/>
<stop offset="1" stop-color="#C7EAD1"/>
</linearGradient>
</defs>
</svg>
