<svg width="70" height="71" viewBox="0 0 70 71" fill="none" xmlns="http://www.w3.org/2000/svg">
<rect y="0.5" width="70" height="70" rx="20" fill="#F563D3"/>
<path d="M17.7689 26.6575C17.7807 26.7238 17.7903 26.7901 17.7942 26.857C17.8442 27.7148 18.4928 34.5596 26.6466 42.8937C26.6466 42.8937 33.69 50.0716 41.1029 51.5807C41.135 51.5874 41.1665 51.5945 41.1986 51.6034C41.6474 51.7255 45.4633 52.69 47.4303 50.7173L50.2326 47.9653C50.2579 47.9404 50.2844 47.9161 50.3114 47.8929C50.5909 47.6526 52.5371 45.8546 50.5903 43.9427C48.62 42.0076 46.136 39.6483 45.8548 39.381C45.8413 39.3683 45.8284 39.3556 45.8154 39.3423C45.663 39.1865 44.2152 37.7856 42.5193 39.0656C42.4703 39.1026 42.4242 39.144 42.3803 39.1871L39.6365 41.8889C39.0218 42.4717 38.0453 42.4639 37.4395 41.8717L28.0657 32.7013C27.4363 32.0854 27.4526 31.0795 28.1017 30.4835L30.2954 28.4705C30.2954 28.4705 32.6989 26.2852 30.1176 23.9248L26.286 20.1619C26.2624 20.1387 26.2399 20.1149 26.2174 20.0901C25.9699 19.8161 24.1334 17.9401 21.9785 20.0282C21.9127 20.0917 21.8413 20.1492 21.7653 20.2C21.0341 20.6927 17.1912 23.4459 17.7689 26.6575Z" fill="white"/>
<path d="M43.5941 33.3609C44.1875 33.3606 44.6762 32.8769 44.5921 32.2894C44.4884 31.564 44.2798 30.8555 43.9714 30.1866C43.5127 29.1914 42.8438 28.3074 42.0109 27.5952C41.178 26.8831 40.2008 26.3597 39.1464 26.0611C38.4377 25.8604 37.7055 25.7645 36.9727 25.7747C36.3793 25.7829 35.9774 26.3408 36.0693 26.9271C36.1612 27.5134 36.7139 27.903 37.3068 27.9279C37.73 27.9457 38.1509 28.0129 38.5609 28.129C39.3167 28.343 40.0172 28.7182 40.6143 29.2287C41.2114 29.7392 41.6908 30.3729 42.0197 31.0863C42.1981 31.4732 42.3299 31.8786 42.4132 32.2939C42.5299 32.8758 43.0006 33.3612 43.5941 33.3609Z" fill="#F9A1E5"/>
<path d="M48.0345 33.4831C48.7493 33.539 49.382 33.0036 49.3553 32.2871C49.3067 30.9838 49.0318 29.6955 48.5396 28.4807C47.8844 26.8637 46.8623 25.4212 45.5538 24.2671C44.2453 23.113 42.6864 22.2789 41.0003 21.8308C39.7335 21.4941 38.421 21.3822 37.1219 21.4967C36.4076 21.5597 35.9554 22.2543 36.1001 22.9566C36.2449 23.6588 36.9327 24.1004 37.6487 24.0622C38.55 24.0141 39.4559 24.1071 40.3334 24.3403C41.6305 24.685 42.8296 25.3266 43.8362 26.2144C44.8427 27.1022 45.6291 28.2119 46.133 29.4558C46.474 30.2972 46.6794 31.1845 46.7442 32.0847C46.7957 32.7999 47.3197 33.4272 48.0345 33.4831Z" fill="#F9A1E5"/>
</svg>
