<svg width="112" height="111" viewBox="0 0 112 111" fill="none" xmlns="http://www.w3.org/2000/svg">
<rect x="0.686523" width="111" height="111" rx="20" fill="#FFDBE6"/>
<path d="M78.4199 46.4459C78.4199 33.517 67.6041 23.1414 54.6229 24.0562C43.7213 24.8205 34.8705 33.7138 34.0627 44.7321C33.3524 54.436 38.7431 62.9472 46.7632 66.7628C47.9662 67.336 48.7339 68.5577 48.7339 69.9009V75.2219V79.2401C48.7339 83.1194 51.5466 86.5239 55.3619 86.9523C59.8704 87.4561 63.6914 83.901 63.6914 79.4428V69.9009C63.6914 68.5577 64.4648 67.336 65.6678 66.7628C73.201 63.1672 78.4199 55.4261 78.4199 46.4459Z" stroke="#FF6493" stroke-width="2.5" stroke-miterlimit="10"/>
<path d="M63.6863 74.9152H48.7288" stroke="#FF6493" stroke-width="2.5" stroke-miterlimit="10"/>
<path d="M56.2099 47.8857C51.8619 47.8857 48.3215 51.4639 48.3215 55.8585V60.502C50.6302 61.8916 53.3284 62.6964 56.2099 62.6964C59.0914 62.6964 61.7896 61.8974 64.0983 60.502V55.8585C64.0983 51.4639 60.558 47.8857 56.2099 47.8857Z" fill="#FFA8C2"/>
<path d="M44.4313 55.8593C44.4313 49.2935 49.7131 43.9551 56.2094 43.9551C62.7057 43.9551 67.9876 49.2935 67.9876 55.8593V57.1736C70.2676 54.4523 71.6425 50.9378 71.6425 47.0991C71.6425 38.4836 64.7337 31.501 56.2094 31.501C47.6851 31.501 40.7764 38.4836 40.7764 47.0991C40.7764 50.9436 42.1512 54.4581 44.4313 57.1736V55.8593Z" fill="#FFA8C2"/>
</svg>
